<svg xmlns="http://www.w3.org/2000/svg" xmlns:xlink="http://www.w3.org/1999/xlink" width="500" zoomAndPan="magnify" viewBox="0 0 375 75" height="130" preserveAspectRatio="xMidYMid meet" version="1.2"><defs><clipPath id="c43604dfd4"><path d="M 63.636719 20.070312 L 121 20.070312 L 121 75 L 63.636719 75 Z M 63.636719 20.070312 "/></clipPath><clipPath id="759e271ced"><path d="M 85.902344 34.433594 L 104.800781 34.433594 L 104.800781 59.480469 L 85.902344 59.480469 Z M 85.902344 34.433594 "/></clipPath></defs><g id="bd55a5ca5c"><g style="fill:#ffcc00;fill-opacity:1;"><g transform="translate(3.613868, 56.676648)"><path style="stroke:none" d="M 1.1875 -5.640625 C 0.726562 -6.691406 0.613281 -7.6875 0.84375 -8.625 C 1.070312 -9.570312 1.570312 -10.304688 2.34375 -10.828125 C 3.125 -11.347656 4.117188 -11.523438 5.328125 -11.359375 C 6.421875 -11.191406 7.28125 -10.820312 7.90625 -10.25 C 8.53125 -9.6875 9.0625 -9.007812 9.5 -8.21875 C 9.945312 -7.425781 10.453125 -6.617188 11.015625 -5.796875 C 11.578125 -4.984375 12.328125 -4.253906 13.265625 -3.609375 C 14.210938 -2.960938 15.5 -2.515625 17.125 -2.265625 C 18.757812 -2.003906 19.953125 -2.113281 20.703125 -2.59375 C 21.460938 -3.082031 21.84375 -3.785156 21.84375 -4.703125 C 21.84375 -5.503906 21.347656 -6.238281 20.359375 -6.90625 C 19.378906 -7.570312 18.113281 -8.226562 16.5625 -8.875 C 15.019531 -9.53125 13.378906 -10.234375 11.640625 -10.984375 C 9.898438 -11.734375 8.253906 -12.585938 6.703125 -13.546875 C 5.160156 -14.515625 3.882812 -15.625 2.875 -16.875 C 1.875 -18.132812 1.375 -19.597656 1.375 -21.265625 C 1.375 -23.148438 2.019531 -24.800781 3.3125 -26.21875 C 4.613281 -27.644531 6.46875 -28.734375 8.875 -29.484375 C 11.28125 -30.242188 14.113281 -30.539062 17.375 -30.375 C 21.8125 -30.207031 25.285156 -29.535156 27.796875 -28.359375 C 30.304688 -27.191406 31.707031 -25.707031 32 -23.90625 C 32.207031 -22.738281 31.90625 -21.796875 31.09375 -21.078125 C 30.28125 -20.367188 29.265625 -20.097656 28.046875 -20.265625 C 26.796875 -20.429688 25.8125 -20.847656 25.09375 -21.515625 C 24.382812 -22.191406 23.738281 -22.945312 23.15625 -23.78125 C 22.570312 -24.613281 21.859375 -25.351562 21.015625 -26 C 20.179688 -26.65625 19.007812 -27.046875 17.5 -27.171875 C 16.332031 -27.253906 15.335938 -27.097656 14.515625 -26.703125 C 13.703125 -26.304688 13.273438 -25.6875 13.234375 -24.84375 C 13.191406 -23.882812 13.640625 -23.085938 14.578125 -22.453125 C 15.523438 -21.828125 16.78125 -21.265625 18.34375 -20.765625 C 19.914062 -20.265625 21.582031 -19.742188 23.34375 -19.203125 C 25.101562 -18.660156 26.773438 -18 28.359375 -17.21875 C 29.953125 -16.445312 31.269531 -15.472656 32.3125 -14.296875 C 33.363281 -13.128906 33.929688 -11.671875 34.015625 -9.921875 C 34.222656 -6.441406 32.914062 -3.75 30.09375 -1.84375 C 27.269531 0.0507812 23.050781 1 17.4375 1 C 16.4375 1 15.148438 0.90625 13.578125 0.71875 C 12.015625 0.53125 10.382812 0.195312 8.6875 -0.28125 C 7 -0.757812 5.472656 -1.425781 4.109375 -2.28125 C 2.753906 -3.144531 1.78125 -4.265625 1.1875 -5.640625 Z M 1.1875 -5.640625 "/></g></g><g style="fill:#ffcc00;fill-opacity:1;"><g transform="translate(35.110766, 56.676648)"><path style="stroke:none" d="M 0.75 -14.6875 C 0.664062 -18.070312 1.414062 -20.925781 3 -23.25 C 4.59375 -25.570312 6.769531 -27.316406 9.53125 -28.484375 C 12.289062 -29.660156 15.410156 -30.25 18.890625 -30.25 C 21.816406 -30.25 24.367188 -29.828125 26.546875 -28.984375 C 28.722656 -28.148438 30.457031 -27.03125 31.75 -25.625 C 33.050781 -24.226562 33.847656 -22.671875 34.140625 -20.953125 C 34.429688 -19.160156 34.09375 -17.625 33.125 -16.34375 C 32.164062 -15.070312 30.828125 -14.015625 29.109375 -13.171875 C 27.398438 -12.335938 25.550781 -11.722656 23.5625 -11.328125 C 21.570312 -10.929688 19.722656 -10.734375 18.015625 -10.734375 C 16.921875 -10.734375 15.957031 -10.796875 15.125 -10.921875 C 16 -8.617188 17.132812 -6.972656 18.53125 -5.984375 C 19.9375 -5.003906 21.539062 -4.492188 23.34375 -4.453125 C 25.3125 -4.453125 27.003906 -4.972656 28.421875 -6.015625 C 29.847656 -7.066406 30.769531 -8.578125 31.1875 -10.546875 C 31.519531 -11.921875 32.273438 -12.546875 33.453125 -12.421875 C 34.617188 -12.253906 35.078125 -11.441406 34.828125 -9.984375 C 34.035156 -6.128906 32.148438 -3.351562 29.171875 -1.65625 C 26.203125 0.03125 22.484375 0.875 18.015625 0.875 C 12.828125 0.875 8.679688 -0.453125 5.578125 -3.109375 C 2.484375 -5.765625 0.875 -9.625 0.75 -14.6875 Z M 17.125 -26.609375 C 16.207031 -26.441406 15.445312 -25.769531 14.84375 -24.59375 C 14.238281 -23.425781 13.867188 -21.921875 13.734375 -20.078125 C 13.609375 -18.234375 13.78125 -16.226562 14.25 -14.0625 C 15.207031 -13.976562 16.257812 -14 17.40625 -14.125 C 18.5625 -14.25 19.609375 -14.570312 20.546875 -15.09375 C 21.492188 -15.613281 22.113281 -16.394531 22.40625 -17.4375 C 22.863281 -19.03125 22.882812 -20.566406 22.46875 -22.046875 C 22.050781 -23.535156 21.359375 -24.726562 20.390625 -25.625 C 19.429688 -26.53125 18.34375 -26.859375 17.125 -26.609375 Z M 17.125 -26.609375 "/></g></g><g style="fill:#ffcc00;fill-opacity:1;"><g transform="translate(67.241374, 56.676648)"><path style="stroke:none" d=""/></g></g><g style="fill:#ffcc00;fill-opacity:1;"><g transform="translate(84.683691, 56.676648)"><path style="stroke:none" d=""/></g></g><g style="fill:#ffcc00;fill-opacity:1;"><g transform="translate(102.126007, 56.676648)"><path style="stroke:none" d=""/></g></g><g style="fill:#ffcc00;fill-opacity:1;"><g transform="translate(119.572639, 56.676648)"><path style="stroke:none" d="M 1.5625 -24.59375 C 1.101562 -24.632812 0.769531 -24.851562 0.5625 -25.25 C 0.351562 -25.65625 0.289062 -26.085938 0.375 -26.546875 C 0.457031 -27.003906 0.707031 -27.335938 1.125 -27.546875 C 2.550781 -28.378906 4.222656 -29.023438 6.140625 -29.484375 C 8.066406 -29.953125 9.929688 -30.1875 11.734375 -30.1875 C 12.984375 -30.1875 14.078125 -30.082031 15.015625 -29.875 C 15.960938 -29.664062 16.71875 -29.210938 17.28125 -28.515625 C 17.851562 -27.828125 18.179688 -26.75 18.265625 -25.28125 C 18.929688 -26.457031 19.878906 -27.515625 21.109375 -28.453125 C 22.347656 -29.398438 23.953125 -30 25.921875 -30.25 C 28.804688 -30.625 31.3125 -30.441406 33.4375 -29.703125 C 35.570312 -28.972656 37.234375 -27.894531 38.421875 -26.46875 C 39.617188 -25.050781 40.195312 -23.488281 40.15625 -21.78125 C 40.113281 -20.019531 39.441406 -18.539062 38.140625 -17.34375 C 36.847656 -16.15625 34.863281 -15.6875 32.1875 -15.9375 C 30.769531 -16.0625 29.703125 -16.40625 28.984375 -16.96875 C 28.273438 -17.539062 27.816406 -18.234375 27.609375 -19.046875 C 27.398438 -19.859375 27.285156 -20.691406 27.265625 -21.546875 C 27.242188 -22.410156 27.222656 -23.21875 27.203125 -23.96875 C 27.179688 -24.71875 27.023438 -25.320312 26.734375 -25.78125 C 26.441406 -26.25 25.851562 -26.460938 24.96875 -26.421875 C 23.925781 -26.378906 23.054688 -26.007812 22.359375 -25.3125 C 21.671875 -24.625 21.128906 -23.753906 20.734375 -22.703125 C 20.335938 -21.660156 20.054688 -20.585938 19.890625 -19.484375 C 19.722656 -18.378906 19.640625 -17.382812 19.640625 -16.5 L 19.640625 -6.15625 C 19.640625 -5.601562 19.796875 -5.085938 20.109375 -4.609375 C 20.421875 -4.128906 20.804688 -3.722656 21.265625 -3.390625 C 21.484375 -3.304688 21.675781 -3.203125 21.84375 -3.078125 C 22.007812 -2.953125 22.175781 -2.828125 22.34375 -2.703125 C 22.925781 -2.328125 23.101562 -1.78125 22.875 -1.0625 C 22.644531 -0.351562 22.191406 0 21.515625 0 L 3.578125 0 C 2.953125 0 2.519531 -0.351562 2.28125 -1.0625 C 2.050781 -1.78125 2.210938 -2.328125 2.765625 -2.703125 C 2.972656 -2.828125 3.179688 -2.953125 3.390625 -3.078125 C 3.597656 -3.203125 3.804688 -3.328125 4.015625 -3.453125 C 5.140625 -3.992188 5.703125 -4.894531 5.703125 -6.15625 L 5.703125 -23.53125 C 5.703125 -24.03125 5.566406 -24.363281 5.296875 -24.53125 C 5.023438 -24.695312 4.660156 -24.78125 4.203125 -24.78125 C 3.785156 -24.78125 3.347656 -24.75 2.890625 -24.6875 C 2.429688 -24.625 1.988281 -24.59375 1.5625 -24.59375 Z M 1.5625 -24.59375 "/></g></g><g style="fill:#ffcc00;fill-opacity:1;"><g transform="translate(155.649828, 56.676648)"><path style="stroke:none" d="M 0.75 -14.6875 C 0.664062 -18.070312 1.414062 -20.925781 3 -23.25 C 4.59375 -25.570312 6.769531 -27.316406 9.53125 -28.484375 C 12.289062 -29.660156 15.410156 -30.25 18.890625 -30.25 C 21.816406 -30.25 24.398438 -29.878906 26.640625 -29.140625 C 28.878906 -28.410156 30.65625 -27.40625 31.96875 -26.125 C 33.289062 -24.851562 34.015625 -23.40625 34.140625 -21.78125 C 34.347656 -20.019531 33.75 -18.539062 32.34375 -17.34375 C 30.945312 -16.15625 28.890625 -15.6875 26.171875 -15.9375 C 24.617188 -16.101562 23.46875 -16.5 22.71875 -17.125 C 21.96875 -17.757812 21.472656 -18.523438 21.234375 -19.421875 C 21.003906 -20.316406 20.867188 -21.234375 20.828125 -22.171875 C 20.785156 -23.117188 20.710938 -23.96875 20.609375 -24.71875 C 20.503906 -25.476562 20.203125 -26.046875 19.703125 -26.421875 C 19.203125 -26.796875 18.34375 -26.859375 17.125 -26.609375 C 16.207031 -26.441406 15.445312 -25.757812 14.84375 -24.5625 C 14.238281 -23.375 13.867188 -21.847656 13.734375 -19.984375 C 13.609375 -18.117188 13.800781 -16.082031 14.3125 -13.875 C 15.0625 -10.519531 16.207031 -8.117188 17.75 -6.671875 C 19.300781 -5.234375 21.164062 -4.492188 23.34375 -4.453125 C 25.3125 -4.453125 27.003906 -4.972656 28.421875 -6.015625 C 29.847656 -7.066406 30.769531 -8.578125 31.1875 -10.546875 C 31.519531 -11.921875 32.273438 -12.546875 33.453125 -12.421875 C 34.617188 -12.253906 35.078125 -11.441406 34.828125 -9.984375 C 34.035156 -6.128906 32.148438 -3.351562 29.171875 -1.65625 C 26.203125 0.03125 22.484375 0.875 18.015625 0.875 C 12.828125 0.875 8.679688 -0.453125 5.578125 -3.109375 C 2.484375 -5.765625 0.875 -9.625 0.75 -14.6875 Z M 0.75 -14.6875 "/></g></g><g style="fill:#ffcc00;fill-opacity:1;"><g transform="translate(187.77416, 56.676648)"><path style="stroke:none" d="M 1.5625 -41.359375 C 1.101562 -41.398438 0.769531 -41.617188 0.5625 -42.015625 C 0.351562 -42.410156 0.289062 -42.835938 0.375 -43.296875 C 0.457031 -43.753906 0.707031 -44.085938 1.125 -44.296875 C 2.507812 -45.140625 4.296875 -45.789062 6.484375 -46.25 C 8.679688 -46.707031 10.804688 -46.9375 12.859375 -46.9375 C 14.535156 -46.9375 15.882812 -46.800781 16.90625 -46.53125 C 17.9375 -46.257812 18.679688 -45.671875 19.140625 -44.765625 C 19.597656 -43.867188 19.828125 -42.476562 19.828125 -40.59375 L 19.828125 -24.15625 C 21.003906 -25.957031 22.539062 -27.410156 24.4375 -28.515625 C 26.34375 -29.628906 28.425781 -30.207031 30.6875 -30.25 C 34.65625 -30.332031 37.507812 -29.609375 39.25 -28.078125 C 40.988281 -26.554688 41.859375 -24.054688 41.859375 -20.578125 L 41.859375 -6.78125 L 41.921875 -6.78125 L 41.921875 -6.15625 C 41.921875 -4.976562 42.460938 -4.054688 43.546875 -3.390625 C 43.710938 -3.304688 43.890625 -3.203125 44.078125 -3.078125 C 44.265625 -2.953125 44.441406 -2.828125 44.609375 -2.703125 C 45.160156 -2.328125 45.316406 -1.78125 45.078125 -1.0625 C 44.847656 -0.351562 44.421875 0 43.796875 0 L 33.453125 0 C 31.898438 0 30.722656 -0.289062 29.921875 -0.875 C 29.128906 -1.457031 28.578125 -2.226562 28.265625 -3.1875 C 27.953125 -4.15625 27.773438 -5.164062 27.734375 -6.21875 L 27.796875 -16.375 C 27.796875 -17.507812 27.785156 -18.640625 27.765625 -19.765625 C 27.742188 -20.890625 27.554688 -21.835938 27.203125 -22.609375 C 26.847656 -23.390625 26.164062 -23.757812 25.15625 -23.71875 C 24.195312 -23.71875 23.316406 -23.304688 22.515625 -22.484375 C 21.722656 -21.671875 21.085938 -20.691406 20.609375 -19.546875 C 20.128906 -18.398438 19.867188 -17.257812 19.828125 -16.125 L 19.828125 -6.15625 C 19.828125 -5.601562 19.984375 -5.085938 20.296875 -4.609375 C 20.609375 -4.128906 20.992188 -3.722656 21.453125 -3.390625 C 21.671875 -3.304688 21.863281 -3.203125 22.03125 -3.078125 C 22.195312 -2.953125 22.363281 -2.828125 22.53125 -2.703125 C 23.113281 -2.328125 23.289062 -1.78125 23.0625 -1.0625 C 22.832031 -0.351562 22.382812 0 21.71875 0 L 3.578125 0 C 2.953125 0 2.519531 -0.351562 2.28125 -1.0625 C 2.050781 -1.78125 2.210938 -2.328125 2.765625 -2.703125 C 2.972656 -2.828125 3.179688 -2.953125 3.390625 -3.078125 C 3.597656 -3.203125 3.804688 -3.328125 4.015625 -3.453125 C 5.140625 -3.992188 5.703125 -4.894531 5.703125 -6.15625 L 5.703125 -40.28125 C 5.703125 -40.78125 5.566406 -41.113281 5.296875 -41.28125 C 5.023438 -41.457031 4.660156 -41.546875 4.203125 -41.546875 C 3.785156 -41.546875 3.347656 -41.515625 2.890625 -41.453125 C 2.429688 -41.390625 1.988281 -41.359375 1.5625 -41.359375 Z M 1.5625 -41.359375 "/></g></g><g style="fill:#ffcc00;fill-opacity:1;"><g transform="translate(229.247296, 56.676648)"><path style="stroke:none" d="M 2.953125 0 C 2.273438 0 1.832031 -0.351562 1.625 -1.0625 C 1.414062 -1.78125 1.585938 -2.328125 2.140625 -2.703125 C 2.390625 -2.867188 2.640625 -3.023438 2.890625 -3.171875 C 3.140625 -3.316406 3.410156 -3.472656 3.703125 -3.640625 C 4.953125 -4.265625 5.769531 -5.0625 6.15625 -6.03125 L 20.828125 -42.359375 L 19.390625 -46.25 C 19.222656 -46.789062 19.242188 -47.207031 19.453125 -47.5 C 19.660156 -47.789062 20.035156 -47.914062 20.578125 -47.875 L 33.515625 -47.125 C 34.097656 -47.082031 34.628906 -46.894531 35.109375 -46.5625 C 35.585938 -46.226562 35.910156 -45.789062 36.078125 -45.25 L 51.578125 -6.03125 C 52.035156 -4.9375 52.832031 -4.078125 53.96875 -3.453125 C 54.175781 -3.328125 54.382812 -3.203125 54.59375 -3.078125 C 54.800781 -2.953125 54.988281 -2.828125 55.15625 -2.703125 C 55.695312 -2.328125 55.863281 -1.78125 55.65625 -1.0625 C 55.445312 -0.351562 55.007812 0 54.34375 0 L 33 0 C 32.375 0 31.957031 -0.351562 31.75 -1.0625 C 31.539062 -1.78125 31.707031 -2.328125 32.25 -2.703125 C 32.414062 -2.785156 32.582031 -2.898438 32.75 -3.046875 C 32.914062 -3.191406 33.082031 -3.328125 33.25 -3.453125 C 34.21875 -4.285156 34.535156 -5.226562 34.203125 -6.28125 L 32 -12.296875 L 13.171875 -12.296875 L 10.984375 -6.65625 L 10.796875 -6.03125 C 10.585938 -5.476562 10.566406 -4.929688 10.734375 -4.390625 C 10.898438 -3.847656 11.191406 -3.410156 11.609375 -3.078125 C 11.691406 -3.035156 11.785156 -2.984375 11.890625 -2.921875 C 11.992188 -2.859375 12.085938 -2.785156 12.171875 -2.703125 C 12.710938 -2.328125 12.878906 -1.78125 12.671875 -1.0625 C 12.460938 -0.351562 12.046875 0 11.421875 0 Z M 22.90625 -36.765625 L 14.6875 -16 L 30.625 -16 Z M 22.90625 -36.765625 "/></g></g><g style="fill:#ffcc00;fill-opacity:1;"><g transform="translate(282.014289, 56.676648)"><path style="stroke:none" d="M 4.453125 -34.265625 C 3.742188 -34.304688 3.171875 -34.585938 2.734375 -35.109375 C 2.296875 -35.628906 2.128906 -36.210938 2.234375 -36.859375 C 2.335938 -37.515625 2.785156 -38.070312 3.578125 -38.53125 C 4.578125 -39.113281 5.894531 -39.8125 7.53125 -40.625 C 9.164062 -41.445312 10.890625 -42.234375 12.703125 -42.984375 C 14.523438 -43.734375 16.195312 -44.304688 17.71875 -44.703125 C 19.25 -45.109375 20.390625 -45.160156 21.140625 -44.859375 C 22.273438 -44.441406 22.988281 -43.675781 23.28125 -42.5625 C 23.570312 -41.457031 23.71875 -40.300781 23.71875 -39.09375 L 23.71875 -6.15625 C 23.71875 -4.976562 24.257812 -4.054688 25.34375 -3.390625 C 25.519531 -3.304688 25.703125 -3.203125 25.890625 -3.078125 C 26.078125 -2.953125 26.253906 -2.828125 26.421875 -2.703125 C 26.960938 -2.328125 27.128906 -1.78125 26.921875 -1.0625 C 26.710938 -0.351562 26.273438 0 25.609375 0 L 7.40625 0 C 6.78125 0 6.359375 -0.351562 6.140625 -1.0625 C 5.929688 -1.78125 6.101562 -2.328125 6.65625 -2.703125 C 6.945312 -2.910156 7.363281 -3.160156 7.90625 -3.453125 C 9.03125 -4.035156 9.59375 -4.9375 9.59375 -6.15625 L 9.59375 -33.1875 C 9.59375 -33.988281 9.46875 -34.535156 9.21875 -34.828125 C 8.96875 -35.117188 8.65625 -35.265625 8.28125 -35.265625 C 7.738281 -35.265625 7.085938 -35.085938 6.328125 -34.734375 C 5.578125 -34.378906 4.953125 -34.222656 4.453125 -34.265625 Z M 4.453125 -34.265625 "/></g></g><g style="fill:#ffcc00;fill-opacity:1;"><g transform="translate(305.730975, 56.676648)"><path style="stroke:none" d="M 4.453125 -34.265625 C 3.742188 -34.304688 3.171875 -34.585938 2.734375 -35.109375 C 2.296875 -35.628906 2.128906 -36.210938 2.234375 -36.859375 C 2.335938 -37.515625 2.785156 -38.070312 3.578125 -38.53125 C 4.578125 -39.113281 5.894531 -39.8125 7.53125 -40.625 C 9.164062 -41.445312 10.890625 -42.234375 12.703125 -42.984375 C 14.523438 -43.734375 16.195312 -44.304688 17.71875 -44.703125 C 19.25 -45.109375 20.390625 -45.160156 21.140625 -44.859375 C 22.273438 -44.441406 22.988281 -43.675781 23.28125 -42.5625 C 23.570312 -41.457031 23.71875 -40.300781 23.71875 -39.09375 L 23.71875 -6.15625 C 23.71875 -4.976562 24.257812 -4.054688 25.34375 -3.390625 C 25.519531 -3.304688 25.703125 -3.203125 25.890625 -3.078125 C 26.078125 -2.953125 26.253906 -2.828125 26.421875 -2.703125 C 26.960938 -2.328125 27.128906 -1.78125 26.921875 -1.0625 C 26.710938 -0.351562 26.273438 0 25.609375 0 L 7.40625 0 C 6.78125 0 6.359375 -0.351562 6.140625 -1.0625 C 5.929688 -1.78125 6.101562 -2.328125 6.65625 -2.703125 C 6.945312 -2.910156 7.363281 -3.160156 7.90625 -3.453125 C 9.03125 -4.035156 9.59375 -4.9375 9.59375 -6.15625 L 9.59375 -33.1875 C 9.59375 -33.988281 9.46875 -34.535156 9.21875 -34.828125 C 8.96875 -35.117188 8.65625 -35.265625 8.28125 -35.265625 C 7.738281 -35.265625 7.085938 -35.085938 6.328125 -34.734375 C 5.578125 -34.378906 4.953125 -34.222656 4.453125 -34.265625 Z M 4.453125 -34.265625 "/></g></g><g style="fill:#ffcc00;fill-opacity:1;"><g transform="translate(329.447661, 56.676648)"><path style="stroke:none" d="M 0.625 -26.734375 C 0.0820312 -27.066406 -0.0703125 -27.585938 0.15625 -28.296875 C 0.382812 -29.003906 0.832031 -29.359375 1.5 -29.359375 L 20.890625 -29.359375 C 21.523438 -29.359375 21.945312 -29.003906 22.15625 -28.296875 C 22.363281 -27.585938 22.21875 -27.066406 21.71875 -26.734375 C 21.539062 -26.609375 21.378906 -26.492188 21.234375 -26.390625 C 21.085938 -26.285156 20.910156 -26.171875 20.703125 -26.046875 C 19.785156 -25.453125 19.453125 -24.65625 19.703125 -23.65625 C 20.617188 -21.5625 21.515625 -19.457031 22.390625 -17.34375 C 23.273438 -15.238281 24.0625 -13.304688 24.75 -11.546875 C 25.445312 -9.785156 25.921875 -8.320312 26.171875 -7.15625 L 32.8125 -22.59375 L 32.75 -22.59375 L 33.125 -23.40625 C 33.550781 -24.488281 33.238281 -25.367188 32.1875 -26.046875 C 32.019531 -26.171875 31.851562 -26.285156 31.6875 -26.390625 C 31.519531 -26.492188 31.351562 -26.609375 31.1875 -26.734375 C 30.644531 -27.066406 30.476562 -27.585938 30.6875 -28.296875 C 30.894531 -29.003906 31.332031 -29.359375 32 -29.359375 L 40.03125 -29.359375 C 40.695312 -29.359375 41.144531 -29.003906 41.375 -28.296875 C 41.613281 -27.585938 41.457031 -27.066406 40.90625 -26.734375 C 40.40625 -26.398438 40.007812 -26.148438 39.71875 -25.984375 C 38.675781 -25.347656 37.925781 -24.570312 37.46875 -23.65625 L 26.671875 0.8125 C 25.367188 3.820312 24.117188 6.34375 22.921875 8.375 C 21.734375 10.40625 20.300781 11.941406 18.625 12.984375 C 16.957031 14.035156 14.703125 14.582031 11.859375 14.625 C 9.390625 14.664062 7.242188 14.242188 5.421875 13.359375 C 3.609375 12.484375 2.28125 11.3125 1.4375 9.84375 C 0.601562 8.382812 0.375 6.773438 0.75 5.015625 C 1.039062 3.722656 1.707031 2.78125 2.75 2.1875 C 3.800781 1.601562 4.914062 1.3125 6.09375 1.3125 C 7.550781 1.3125 8.875 1.6875 10.0625 2.4375 C 11.257812 3.195312 11.796875 4.222656 11.671875 5.515625 C 11.585938 6.734375 11.722656 7.75 12.078125 8.5625 C 12.429688 9.375 12.867188 9.988281 13.390625 10.40625 C 13.921875 10.832031 14.394531 11.023438 14.8125 10.984375 C 14.976562 10.984375 15.1875 10.941406 15.4375 10.859375 C 16.476562 10.441406 16.976562 9.425781 16.9375 7.8125 C 16.894531 6.195312 16.46875 4.164062 15.65625 1.71875 C 14.84375 -0.71875 13.796875 -3.398438 12.515625 -6.328125 C 11.242188 -9.265625 9.882812 -12.238281 8.4375 -15.25 C 7 -18.257812 5.628906 -21.125 4.328125 -23.84375 C 3.742188 -24.757812 3.015625 -25.453125 2.140625 -25.921875 C 1.835938 -26.046875 1.5625 -26.171875 1.3125 -26.296875 C 1.0625 -26.421875 0.832031 -26.566406 0.625 -26.734375 Z M 15.1875 10.921875 C 15.101562 10.960938 14.976562 10.984375 14.8125 10.984375 C 14.976562 10.984375 15.101562 10.960938 15.1875 10.921875 Z M 15.1875 10.921875 "/></g></g><path style=" stroke:none;fill-rule:evenodd;fill:#ffcc00;fill-opacity:1;" d="M 109.125 33.375 C 119.6875 40.230469 122.6875 54.351562 115.832031 64.914062 C 109.953125 73.960938 98.746094 77.460938 89.011719 73.960938 L 82.5 83.992188 L 77.324219 91.960938 C 75.757812 94.375 72.5 95.066406 70.082031 93.5 C 67.667969 91.929688 66.976562 88.671875 68.542969 86.257812 L 73.71875 78.289062 L 80.230469 68.257812 C 73.078125 60.789062 71.710938 49.128906 77.589844 40.078125 C 84.445312 29.519531 98.566406 26.515625 109.125 33.375 Z M 70.082031 93.5 Z M 70.082031 93.5 "/><g clip-rule="nonzero" clip-path="url(#c43604dfd4)"><path style=" stroke:none;fill-rule:nonzero;fill:#00fffe;fill-opacity:1;" d="M 106.316406 28.847656 C 110.898438 31.824219 113.84375 36.375 114.894531 41.328125 C 115.949219 46.28125 115.109375 51.636719 112.136719 56.21875 L 109.113281 54.257812 C 111.546875 50.507812 112.230469 46.128906 111.371094 42.078125 C 110.511719 38.027344 108.101562 34.304688 104.355469 31.867188 Z M 108.9375 24.8125 C 114.636719 28.511719 118.292969 34.167969 119.601562 40.328125 C 120.910156 46.484375 119.871094 53.144531 116.171875 58.839844 C 112.472656 64.539062 106.8125 68.195312 100.65625 69.503906 C 96.714844 70.34375 92.566406 70.21875 88.601562 69.050781 L 83.03125 77.628906 L 81.964844 79.265625 L 76.792969 87.234375 C 75.738281 88.859375 74.117188 89.902344 72.351562 90.277344 C 70.589844 90.652344 68.683594 90.359375 67.058594 89.304688 C 65.433594 88.25 64.386719 86.625 64.015625 84.863281 C 63.640625 83.101562 63.933594 81.195312 64.988281 79.570312 L 70.164062 71.601562 L 71.226562 69.960938 L 76.796875 61.386719 C 74.117188 58.234375 72.316406 54.5 71.476562 50.558594 C 70.167969 44.398438 71.207031 37.742188 74.90625 32.046875 C 78.609375 26.347656 84.265625 22.691406 90.425781 21.382812 C 96.582031 20.070312 103.242188 21.113281 108.9375 24.8125 Z M 85.152344 67.746094 C 84.363281 67.375 83.582031 66.960938 82.824219 66.5 L 82.820312 66.5 L 82.78125 66.476562 C 82.730469 66.445312 82.683594 66.414062 82.632812 66.382812 C 82.5625 66.339844 82.492188 66.296875 82.421875 66.253906 L 82.398438 66.238281 C 82.3125 66.183594 82.226562 66.128906 82.144531 66.074219 C 82.058594 66.019531 81.972656 65.960938 81.886719 65.90625 L 81.863281 65.890625 C 81.796875 65.84375 81.726562 65.800781 81.660156 65.753906 C 81.613281 65.71875 81.5625 65.6875 81.515625 65.652344 L 81.480469 65.628906 L 81.476562 65.625 C 80.746094 65.117188 80.050781 64.574219 79.390625 64.003906 L 74.097656 72.15625 C 74.339844 72.332031 74.578125 72.503906 74.808594 72.667969 C 75.425781 73.105469 76.132812 73.582031 76.929688 74.101562 C 77.730469 74.617188 78.453125 75.070312 79.101562 75.453125 C 79.34375 75.601562 79.597656 75.746094 79.859375 75.894531 Z M 116.078125 41.078125 C 114.960938 35.820312 111.839844 30.992188 106.976562 27.832031 C 102.113281 24.675781 96.429688 23.789062 91.175781 24.902344 C 85.917969 26.023438 81.085938 29.144531 77.929688 34.007812 C 74.773438 38.871094 73.882812 44.550781 75 49.808594 C 76.117188 55.066406 79.242188 59.894531 84.105469 63.054688 C 88.96875 66.210938 94.648438 67.097656 99.90625 65.980469 C 105.164062 64.863281 109.992188 61.742188 113.148438 56.878906 C 116.308594 52.015625 117.195312 46.332031 116.078125 41.078125 Z M 73.769531 85.273438 L 77.898438 78.914062 C 77.691406 78.792969 77.480469 78.667969 77.261719 78.539062 C 76.417969 78.039062 75.652344 77.566406 74.96875 77.121094 C 74.285156 76.679688 73.539062 76.171875 72.738281 75.601562 C 72.535156 75.457031 72.332031 75.3125 72.140625 75.171875 L 68.011719 81.53125 C 67.496094 82.320312 67.355469 83.25 67.539062 84.113281 C 67.722656 84.976562 68.230469 85.769531 69.019531 86.28125 C 69.808594 86.792969 70.742188 86.9375 71.601562 86.753906 C 72.464844 86.570312 73.257812 86.0625 73.769531 85.273438 Z M 73.769531 85.273438 "/></g><g clip-rule="nonzero" clip-path="url(#759e271ced)"><path style=" stroke:none;fill-rule:nonzero;fill:#000000;fill-opacity:1;" d="M 95.371094 28.460938 C 94.765625 28.460938 94.160156 28.492188 93.554688 28.550781 C 92.953125 28.613281 92.351562 28.699219 91.757812 28.820312 C 91.164062 28.9375 90.574219 29.085938 89.996094 29.261719 C 89.414062 29.4375 88.84375 29.640625 88.28125 29.871094 C 87.722656 30.105469 87.175781 30.363281 86.640625 30.648438 C 86.105469 30.9375 85.585938 31.246094 85.082031 31.585938 C 84.574219 31.921875 84.089844 32.28125 83.621094 32.667969 C 83.152344 33.050781 82.703125 33.460938 82.273438 33.886719 C 81.84375 34.316406 81.4375 34.765625 81.050781 35.234375 C 80.667969 35.703125 80.304688 36.191406 79.96875 36.695312 C 79.632812 37.199219 79.320312 37.71875 79.035156 38.253906 C 78.75 38.789062 78.488281 39.339844 78.257812 39.898438 C 78.023438 40.460938 77.820312 41.03125 77.644531 41.609375 C 77.46875 42.191406 77.320312 42.777344 77.203125 43.375 C 77.085938 43.96875 76.996094 44.566406 76.9375 45.171875 C 76.878906 45.777344 76.847656 46.382812 76.847656 46.988281 C 76.847656 47.59375 76.878906 48.199219 76.9375 48.804688 C 76.996094 49.40625 77.085938 50.007812 77.203125 50.601562 C 77.320312 51.195312 77.46875 51.785156 77.644531 52.367188 C 77.820312 52.945312 78.023438 53.515625 78.257812 54.078125 C 78.488281 54.636719 78.75 55.183594 79.035156 55.71875 C 79.320312 56.253906 79.632812 56.773438 79.96875 57.28125 C 80.304688 57.785156 80.667969 58.269531 81.050781 58.738281 C 81.4375 59.207031 81.84375 59.65625 82.273438 60.085938 C 82.703125 60.515625 83.152344 60.921875 83.621094 61.308594 C 84.089844 61.691406 84.574219 62.054688 85.082031 62.390625 C 85.585938 62.726562 86.105469 63.039062 86.640625 63.324219 C 87.175781 63.613281 87.722656 63.871094 88.28125 64.101562 C 88.84375 64.335938 89.414062 64.539062 89.996094 64.714844 C 90.574219 64.890625 91.164062 65.039062 91.757812 65.15625 C 92.351562 65.273438 92.953125 65.363281 93.554688 65.421875 C 94.160156 65.484375 94.765625 65.511719 95.371094 65.511719 C 95.980469 65.511719 96.585938 65.484375 97.1875 65.421875 C 97.792969 65.363281 98.390625 65.273438 98.984375 65.15625 C 99.582031 65.039062 100.167969 64.890625 100.75 64.714844 C 101.332031 64.539062 101.902344 64.335938 102.460938 64.101562 C 103.023438 63.871094 103.570312 63.613281 104.105469 63.324219 C 104.640625 63.039062 105.160156 62.726562 105.664062 62.390625 C 106.167969 62.054688 106.65625 61.691406 107.125 61.308594 C 107.59375 60.921875 108.042969 60.515625 108.472656 60.085938 C 108.902344 59.65625 109.308594 59.207031 109.691406 58.738281 C 110.078125 58.269531 110.4375 57.785156 110.773438 57.28125 C 111.113281 56.773438 111.425781 56.253906 111.710938 55.71875 C 111.996094 55.183594 112.253906 54.636719 112.488281 54.078125 C 112.71875 53.515625 112.921875 52.945312 113.097656 52.367188 C 113.277344 51.785156 113.421875 51.195312 113.542969 50.601562 C 113.660156 50.007812 113.75 49.40625 113.808594 48.804688 C 113.867188 48.199219 113.898438 47.59375 113.898438 46.988281 C 113.898438 46.382812 113.867188 45.777344 113.804688 45.171875 C 113.746094 44.570312 113.65625 43.96875 113.539062 43.375 C 113.417969 42.78125 113.269531 42.191406 113.09375 41.613281 C 112.917969 41.03125 112.714844 40.460938 112.480469 39.902344 C 112.25 39.339844 111.988281 38.792969 111.703125 38.257812 C 111.417969 37.722656 111.105469 37.203125 110.769531 36.699219 C 110.433594 36.195312 110.070312 35.710938 109.6875 35.242188 C 109.300781 34.773438 108.894531 34.324219 108.464844 33.894531 C 108.035156 33.464844 107.585938 33.058594 107.117188 32.675781 C 106.648438 32.289062 106.164062 31.929688 105.660156 31.589844 C 105.15625 31.253906 104.636719 30.941406 104.101562 30.65625 C 103.566406 30.371094 103.019531 30.109375 102.457031 29.878906 C 101.898438 29.644531 101.328125 29.441406 100.746094 29.265625 C 100.167969 29.089844 99.578125 28.941406 98.984375 28.820312 C 98.390625 28.703125 97.789062 28.613281 97.1875 28.554688 C 96.582031 28.492188 95.980469 28.464844 95.371094 28.460938 Z M 95.371094 62.546875 C 94.351562 62.546875 93.339844 62.449219 92.335938 62.25 C 91.335938 62.050781 90.359375 61.753906 89.417969 61.363281 C 88.472656 60.972656 87.578125 60.492188 86.726562 59.925781 C 85.878906 59.359375 85.089844 58.714844 84.367188 57.992188 C 83.648438 57.269531 83 56.484375 82.433594 55.632812 C 81.867188 54.785156 81.386719 53.886719 80.996094 52.941406 C 80.605469 52 80.308594 51.027344 80.109375 50.023438 C 79.910156 49.023438 79.8125 48.007812 79.8125 46.988281 C 79.8125 45.964844 79.910156 44.953125 80.109375 43.953125 C 80.308594 42.949219 80.605469 41.976562 80.996094 41.03125 C 81.386719 40.089844 81.867188 39.191406 82.433594 38.34375 C 83 37.492188 83.648438 36.707031 84.367188 35.984375 C 85.089844 35.261719 85.878906 34.617188 86.726562 34.050781 C 87.578125 33.480469 88.472656 33.003906 89.417969 32.609375 C 90.359375 32.21875 91.335938 31.925781 92.335938 31.726562 C 93.339844 31.527344 94.351562 31.425781 95.371094 31.425781 C 96.394531 31.425781 97.40625 31.527344 98.40625 31.726562 C 99.410156 31.925781 100.382812 32.21875 101.328125 32.609375 C 102.269531 33.003906 103.167969 33.480469 104.015625 34.050781 C 104.867188 34.617188 105.652344 35.261719 106.375 35.984375 C 107.097656 36.707031 107.742188 37.492188 108.3125 38.34375 C 108.878906 39.191406 109.359375 40.089844 109.75 41.03125 C 110.140625 41.976562 110.433594 42.949219 110.632812 43.953125 C 110.832031 44.953125 110.933594 45.964844 110.933594 46.988281 C 110.933594 48.007812 110.832031 49.019531 110.632812 50.023438 C 110.429688 51.023438 110.136719 51.996094 109.742188 52.941406 C 109.351562 53.882812 108.871094 54.78125 108.304688 55.628906 C 107.738281 56.476562 107.09375 57.261719 106.371094 57.984375 C 105.648438 58.707031 104.863281 59.351562 104.011719 59.921875 C 103.164062 60.488281 102.269531 60.96875 101.324219 61.359375 C 100.382812 61.75 99.410156 62.046875 98.40625 62.246094 C 97.40625 62.445312 96.394531 62.546875 95.371094 62.546875 Z M 95.371094 40.320312 C 95.765625 40.320312 96.144531 40.242188 96.507812 40.09375 C 96.871094 39.941406 97.191406 39.730469 97.46875 39.449219 C 97.746094 39.171875 97.960938 38.851562 98.109375 38.488281 C 98.261719 38.125 98.335938 37.746094 98.335938 37.355469 C 98.335938 36.960938 98.261719 36.582031 98.109375 36.21875 C 97.960938 35.855469 97.746094 35.535156 97.46875 35.257812 C 97.191406 34.980469 96.871094 34.765625 96.507812 34.617188 C 96.144531 34.464844 95.765625 34.390625 95.371094 34.390625 C 94.980469 34.390625 94.601562 34.464844 94.238281 34.617188 C 93.875 34.765625 93.554688 34.980469 93.277344 35.257812 C 93 35.535156 92.785156 35.855469 92.632812 36.21875 C 92.484375 36.582031 92.410156 36.960938 92.410156 37.355469 C 92.410156 37.746094 92.484375 38.125 92.632812 38.488281 C 92.785156 38.851562 93 39.171875 93.277344 39.449219 C 93.554688 39.730469 93.875 39.941406 94.238281 40.09375 C 94.601562 40.242188 94.980469 40.320312 95.371094 40.320312 Z M 103.308594 40.335938 L 95.554688 41.460938 C 95.433594 41.480469 95.3125 41.480469 95.1875 41.460938 L 87.433594 40.335938 C 87.242188 40.304688 87.046875 40.316406 86.859375 40.367188 C 86.667969 40.414062 86.496094 40.496094 86.335938 40.613281 C 86.179688 40.730469 86.050781 40.875 85.953125 41.042969 C 85.851562 41.210938 85.785156 41.394531 85.757812 41.589844 C 85.730469 41.78125 85.738281 41.972656 85.789062 42.164062 C 85.835938 42.355469 85.917969 42.527344 86.035156 42.6875 C 86.152344 42.84375 86.296875 42.972656 86.464844 43.074219 C 86.632812 43.175781 86.8125 43.238281 87.007812 43.269531 L 91.78125 43.960938 C 91.988281 43.992188 92.09375 44.113281 92.09375 44.324219 L 92.09375 50.042969 L 91.964844 50.625 L 88.90625 57.355469 C 88.804688 57.527344 88.742188 57.707031 88.71875 57.902344 C 88.691406 58.097656 88.703125 58.289062 88.753906 58.480469 C 88.800781 58.671875 88.886719 58.84375 89.003906 59 C 89.125 59.15625 89.269531 59.285156 89.4375 59.382812 C 89.609375 59.480469 89.789062 59.542969 89.984375 59.570312 C 90.179688 59.597656 90.371094 59.585938 90.5625 59.535156 C 90.753906 59.484375 90.925781 59.402344 91.082031 59.28125 C 91.238281 59.164062 91.367188 59.019531 91.464844 58.847656 L 95.015625 51.464844 C 95.089844 51.308594 95.210938 51.234375 95.382812 51.234375 C 95.558594 51.234375 95.679688 51.3125 95.753906 51.464844 L 99.277344 58.847656 C 99.378906 59.019531 99.503906 59.164062 99.664062 59.28125 C 99.820312 59.398438 99.992188 59.484375 100.179688 59.53125 C 100.371094 59.582031 100.5625 59.59375 100.757812 59.566406 C 100.953125 59.542969 101.132812 59.476562 101.304688 59.378906 C 101.472656 59.28125 101.617188 59.152344 101.734375 58.996094 C 101.855469 58.839844 101.941406 58.667969 101.988281 58.480469 C 102.039062 58.289062 102.050781 58.097656 102.027344 57.902344 C 102 57.707031 101.9375 57.527344 101.839844 57.355469 L 98.730469 50.519531 L 98.652344 50.15625 L 98.652344 44.324219 C 98.652344 44.113281 98.753906 43.992188 98.964844 43.960938 L 103.734375 43.269531 C 103.929688 43.238281 104.109375 43.175781 104.28125 43.074219 C 104.449219 42.972656 104.589844 42.84375 104.707031 42.6875 C 104.824219 42.527344 104.90625 42.355469 104.957031 42.164062 C 105.003906 41.976562 105.015625 41.78125 104.984375 41.589844 C 104.957031 41.394531 104.894531 41.214844 104.792969 41.042969 C 104.691406 40.875 104.566406 40.734375 104.40625 40.613281 C 104.25 40.496094 104.078125 40.414062 103.886719 40.367188 C 103.695312 40.316406 103.503906 40.304688 103.308594 40.335938 Z M 103.308594 40.335938 "/></g></g></svg>